<svg width="60" height="60" viewBox="0 0 60 60" fill="none" xmlns="http://www.w3.org/2000/svg">
<g clip-path="url(#clip0)">
<path d="M47.3751 36.9621C46.1976 34.5072 41.9851 31.0996 37.9151 27.8071C35.6451 25.9721 33.5001 24.2371 32.1326 22.8696C31.7901 22.5246 31.2776 22.4146 30.8252 22.5771C29.9827 22.8822 29.4626 23.1171 29.0527 23.2996C28.4277 23.5796 28.2177 23.6746 27.3752 23.7596C27.0026 23.7971 26.6677 23.9971 26.4602 24.3071C24.6926 26.9495 22.8626 26.7245 21.6401 26.3146C21.2501 26.1846 21.1802 26.0171 21.1427 25.8571C20.8802 24.7596 22.1977 22.2046 23.9051 20.4971C27.9677 16.4321 30.0626 15.4145 34.4876 17.3921C39.5076 19.637 44.5376 21.3946 44.5877 21.4121C45.2452 21.6395 45.9527 21.2945 46.1801 20.642C46.4051 19.9895 46.0626 19.277 45.4101 19.0496C45.3601 19.0321 40.4301 17.3096 35.5101 15.107C29.7776 12.5445 26.6325 14.232 22.14 18.7271C20.43 20.4371 18.1075 23.897 18.7075 26.4346C18.965 27.5146 19.725 28.3146 20.855 28.6871C23.6875 29.6221 26.2724 28.727 28.1975 26.1721C28.9925 26.0496 29.425 25.8696 30.0749 25.5771C30.3099 25.4721 30.5849 25.3497 30.95 25.2021C32.38 26.5446 34.31 28.1071 36.3425 29.7496C40.0175 32.7221 44.185 36.0921 45.1225 38.0421C45.5851 39.0046 45.0875 39.6321 44.75 39.9196C44.255 40.3446 43.5775 40.4796 43.21 40.222C42.805 39.9445 42.2775 39.9271 41.86 40.177C41.44 40.427 41.2051 40.8995 41.2575 41.3846C41.3425 42.1796 40.615 42.6346 40.3 42.7921C39.5 43.1971 38.665 43.1271 38.3525 42.8371C38.0024 42.5121 37.4999 42.4171 37.055 42.5821C36.61 42.7495 36.2999 43.1596 36.2549 43.6345C36.1799 44.4545 35.5724 45.242 34.7799 45.5495C34.3974 45.6945 33.8424 45.782 33.3449 45.327C33.035 45.047 32.6049 44.9394 32.2025 45.0369C31.795 45.1369 31.4675 45.432 31.325 45.8244C31.2775 45.9495 31.1699 46.2495 29.9999 46.2495C29.1674 46.2495 27.6699 45.687 26.9375 45.2019C26.06 44.6244 20.5574 40.5195 15.805 36.5394C15.1375 35.9769 13.9825 34.7719 12.9625 33.7069C12.0575 32.7619 11.23 31.9044 10.805 31.5444C10.2725 31.0944 9.48497 31.1619 9.04247 31.692C8.59751 32.2194 8.66243 33.0095 9.19001 33.4545C9.57755 33.782 10.3275 34.5744 11.155 35.4369C12.27 36.6019 13.4225 37.8069 14.1975 38.457C18.8526 42.3545 24.4476 46.562 25.5625 47.2944C26.4825 47.8995 28.465 48.7494 30 48.7494C31.2325 48.7494 32.1801 48.4669 32.8375 47.9145C33.7175 48.257 34.7176 48.2595 35.68 47.8845C36.8176 47.4444 37.7525 46.557 38.2825 45.482C39.2675 45.692 40.3951 45.5445 41.42 45.0296C42.4225 44.5246 43.1474 43.7521 43.5074 42.8495C44.5025 42.902 45.5274 42.5495 46.3749 41.822C47.8101 40.5946 48.205 38.6847 47.3751 36.9621Z" fill="#0087D3"/>
<path d="M24.9999 16.2496H13.7499C13.0599 16.2496 12.4999 16.8096 12.4999 17.4996C12.4999 18.1896 13.0599 18.7497 13.7499 18.7497H24.9999C25.6899 18.7497 26.25 18.1896 26.25 17.4996C26.25 16.8096 25.6899 16.2496 24.9999 16.2496Z" fill="#0087D3"/>
<path d="M51.0375 34.302C50.6499 33.7296 49.875 33.5721 49.3025 33.9621L45.6475 36.417C45.0751 36.802 44.9225 37.5795 45.3076 38.152C45.55 38.5095 45.9451 38.7045 46.3476 38.7045C46.5852 38.7045 46.8276 38.637 47.0427 38.4921L50.6976 36.0371C51.27 35.652 51.4224 34.8746 51.0375 34.302Z" fill="#0087D3"/>
<path d="M43.2775 40.2672C42.3825 39.5622 38.38 35.4647 35.905 32.8847C35.4274 32.3847 34.635 32.3672 34.1374 32.8472C33.6374 33.3248 33.6224 34.1172 34.0999 34.6148C34.7425 35.2847 40.4099 41.1923 41.7274 42.2323C41.9549 42.4123 42.2299 42.4999 42.4999 42.4999C42.8674 42.4999 43.2349 42.3348 43.4849 42.0223C43.9125 41.4822 43.82 40.6947 43.2775 40.2672Z" fill="#0087D3"/>
<path d="M38.2825 42.7747C36.785 41.5771 33.0225 37.5796 32.1724 36.6547C31.7024 36.1447 30.9149 36.1147 30.4049 36.5797C29.8974 37.0471 29.8624 37.8397 30.3299 38.3472C30.3749 38.3947 34.8649 43.2423 36.7199 44.7273C36.95 44.9097 37.2275 44.9997 37.4999 44.9997C37.865 44.9997 38.2299 44.8372 38.4774 44.5323C38.9076 43.9922 38.82 43.2047 38.2825 42.7747Z" fill="#0087D3"/>
<path d="M33.3075 45.2921C31.5249 43.7897 27.8775 39.9071 27.165 39.1446C26.6925 38.6396 25.8999 38.6121 25.3974 39.0846C24.8925 39.5571 24.8674 40.3471 25.3374 40.8521C26.3625 41.9496 29.8524 45.6497 31.695 47.2046C31.9299 47.4021 32.2149 47.4996 32.4999 47.4996C32.8549 47.4996 33.21 47.3471 33.4575 47.0546C33.9024 46.5246 33.8349 45.7371 33.3075 45.2921Z" fill="#0087D3"/>
<path d="M14.61 14.0922C12.4675 12.0621 3.9 11.4046 1.32504 11.2521C0.970078 11.2347 0.642539 11.3521 0.392578 11.5896C0.1425 11.8246 0 12.1546 0 12.4996V34.9996C0 35.6896 0.560039 36.2496 1.25004 36.2496H8.75004C9.29004 36.2496 9.77004 35.9022 9.9375 35.3871C10.12 34.8271 14.4275 21.6072 14.995 15.1071C15.0275 14.7271 14.8875 14.3521 14.61 14.0922ZM7.8375 33.7497H2.49996V13.8396C6.5175 14.1571 10.8525 14.8471 12.4275 15.6121C11.765 21.0871 8.7675 30.8146 7.8375 33.7497Z" fill="#0087D3"/>
<path d="M58.7499 13.7496C48.9349 13.7496 43.4899 16.2621 43.2624 16.3671C42.9374 16.5196 42.6949 16.8021 42.5949 17.1446C42.4949 17.4872 42.5449 17.8547 42.7324 18.1596C44.2774 20.6471 49.1149 34.4621 50.0449 37.8321C50.1949 38.3745 50.6874 38.7495 51.2499 38.7495H58.7499C59.4399 38.7495 60 38.1895 60 37.4995V14.9995C60 14.3071 59.4399 13.7496 58.7499 13.7496ZM57.5 36.2496H52.185C51 32.3895 47.4999 22.3246 45.5474 18.1646C47.4549 17.5172 51.5525 16.4046 57.5 16.2647V36.2496Z" fill="#0087D3"/>
</g>
<defs>
<clipPath id="clip0">
<rect width="60" height="60" fill="white"/>
</clipPath>
</defs>
</svg>
