<svg width="54" height="54" viewBox="0 0 54 54" fill="none" xmlns="http://www.w3.org/2000/svg">
<path d="M36.0654 34.6314C34.786 34.6314 33.7451 33.7305 33.7451 32.6232C33.7451 31.5158 34.786 30.6149 36.0654 30.6149C37.3449 30.6149 38.3857 31.5158 38.3857 32.6232C38.3857 33.2056 38.858 33.6779 39.4404 33.6779C40.0228 33.6779 40.4951 33.2056 40.4951 32.6232C40.4951 30.6905 39.055 29.0654 37.1201 28.6243V28.0758C37.1201 27.4934 36.6478 27.0211 36.0654 27.0211C35.483 27.0211 35.0107 27.4934 35.0107 28.0758V28.6243C33.0758 29.0654 31.6357 30.6905 31.6357 32.6232C31.6357 34.8936 33.6229 36.7408 36.0654 36.7408C37.3449 36.7408 38.3857 37.6417 38.3857 38.7491C38.3857 39.8565 37.3449 40.7574 36.0654 40.7574C34.786 40.7574 33.7451 39.8565 33.7451 38.7491C33.7451 38.1667 33.2728 37.6944 32.6904 37.6944C32.108 37.6944 31.6357 38.1667 31.6357 38.7491C31.6357 40.6818 33.0758 42.3069 35.0107 42.748V43.2036C35.0107 43.786 35.483 44.2583 36.0654 44.2583C36.6478 44.2583 37.1201 43.786 37.1201 43.2036V42.748C39.055 42.3069 40.4951 40.6818 40.4951 38.7491C40.4951 36.4786 38.508 34.6314 36.0654 34.6314Z" fill="#0087D3"/>
<path d="M47.6172 28.3579C46.2394 26.2111 44.2984 24.4933 42.0039 23.3903C41.4788 23.1378 40.8486 23.3588 40.5963 23.8839C40.3439 24.4089 40.5649 25.039 41.0899 25.2913C45.0884 27.2134 47.6718 31.3202 47.6718 35.7539C47.6718 37.6511 47.2042 39.5326 46.3196 41.1952C46.046 41.7093 46.241 42.348 46.7553 42.6216C46.9131 42.7056 47.0827 42.7455 47.2497 42.7455C47.6271 42.7455 47.9921 42.5423 48.1817 42.1859C49.2281 40.2196 49.7812 37.9954 49.7812 35.7539C49.7812 33.1214 49.0329 30.5639 47.6172 28.3579Z" fill="#0087D3"/>
<path d="M37.7232 22.0432L37.6522 22.0431C37.0698 22.0431 36.5975 22.5153 36.5975 23.0978C36.5975 23.6803 37.0698 24.1525 37.6522 24.1525L37.7133 24.1526C37.715 24.1526 37.7166 24.1526 37.7184 24.1526C38.2985 24.1526 38.7702 23.6837 38.7729 23.1028C38.7756 22.5203 38.3056 22.0459 37.7232 22.0432Z" fill="#0087D3"/>
<path d="M31.0506 46.2166C27.0523 44.2944 24.4689 40.1876 24.4689 35.754C24.4689 33.8568 24.9365 31.9754 25.8211 30.3128C26.0947 29.7986 25.8997 29.1599 25.3854 28.8863C24.8713 28.6127 24.2324 28.8077 23.9589 29.322C22.9126 31.2885 22.3595 33.5126 22.3595 35.754C22.3595 38.3865 23.1078 40.9439 24.5235 43.15C25.9012 45.2968 27.8423 47.0147 30.1367 48.1178C30.2841 48.1886 30.4397 48.2221 30.593 48.2221C30.9858 48.2221 31.3627 48.0017 31.5443 47.6242C31.7965 47.0991 31.5756 46.469 31.0506 46.2166Z" fill="#0087D3"/>
<path d="M34.4884 47.3554L34.4274 47.3552C33.8422 47.3542 33.3706 47.8224 33.3679 48.405C33.3652 48.9875 33.8354 49.4619 34.4178 49.4646L34.4884 49.4648C35.0708 49.4648 35.5431 48.9925 35.5431 48.4101C35.5431 47.8277 35.0708 47.3554 34.4884 47.3554Z" fill="#0087D3"/>
<path d="M40.8595 18.4747C40.7311 18.1689 40.5739 17.8806 40.3909 17.6132H43.1366C45.8117 17.6132 47.9882 15.4368 47.9882 12.7617C47.9882 10.0866 45.8117 7.91014 43.1366 7.91014H34.6907C35.2277 7.12946 35.5429 6.18499 35.5429 5.16796C35.5429 2.49286 33.3665 0.316406 30.6913 0.316406H4.85155C2.17645 0.316406 0 2.49286 0 5.16796C0 7.84306 2.17645 10.0195 4.85155 10.0195H13.2975C12.7605 10.8002 12.4453 11.7447 12.4453 12.7617C12.4453 13.7787 12.7604 14.7232 13.2975 15.5039H10.5469C7.87175 15.5039 5.6953 17.6803 5.6953 20.3554C5.6953 21.8918 6.41396 23.2628 7.53204 24.1523C6.41396 25.0418 5.6953 26.4128 5.6953 27.9492C5.6953 29.4855 6.41396 30.8565 7.53204 31.746C6.41396 32.6356 5.6953 34.0065 5.6953 35.5429C5.6953 37.0793 6.41396 38.4502 7.53204 39.3398C6.41396 40.2293 5.6953 41.6003 5.6953 43.1366C5.6953 45.8117 7.87175 47.9882 10.5469 47.9882H22.9763C26.2507 51.4905 30.9088 53.6836 36.0704 53.6836C45.9568 53.6836 54 45.6404 54 35.7539C54 27.5256 48.4281 20.5751 40.8595 18.4747ZM43.1366 10.0195C44.6487 10.0195 45.8788 11.2497 45.8788 12.7617C45.8788 14.2737 44.6487 15.5039 43.1366 15.5039H36.3867H17.2968C15.7847 15.5039 14.5547 14.2737 14.5547 12.7617C14.5547 11.2497 15.7847 10.0195 17.2968 10.0195H43.1366ZM4.85155 7.91014C3.33945 7.91014 2.10937 6.67996 2.10937 5.16796C2.10937 3.65596 3.33945 2.42578 4.85155 2.42578H30.6913C32.2034 2.42578 33.4335 3.65596 33.4335 5.16796C33.4335 6.67996 32.2034 7.91014 30.6913 7.91014H4.85155ZM10.5469 17.6132H36.3867C36.8115 17.6132 37.2183 17.712 37.5832 17.8887C37.0843 17.8469 36.58 17.8243 36.0704 17.8243C31.1191 17.8243 26.6304 19.8418 23.3826 23.0976H10.5469C9.03486 23.0976 7.80467 21.8674 7.80467 20.3554C7.80467 18.8434 9.03486 17.6132 10.5469 17.6132ZM10.5469 25.207H21.5804C20.3832 26.8473 19.4575 28.6975 18.8696 30.6914H10.5469C9.03475 30.6914 7.80467 29.4613 7.80467 27.9492C7.80467 26.4372 9.03475 25.207 10.5469 25.207ZM10.5469 32.8007H18.3853C18.2253 33.7619 18.1407 34.7481 18.1407 35.7539C18.1407 36.6131 18.2028 37.4579 18.3202 38.2851H10.5469C9.03475 38.2851 7.80467 37.055 7.80467 35.5429C7.80467 34.0308 9.03475 32.8007 10.5469 32.8007ZM10.5469 45.8788C9.03475 45.8788 7.80467 44.6487 7.80467 43.1366C7.80467 41.6245 9.03475 40.3945 10.5469 40.3945H18.7508C19.283 42.3786 20.1476 44.2278 21.2813 45.8788H10.5469ZM36.0704 51.5742C27.347 51.5742 20.2501 44.4773 20.2501 35.7539C20.2501 27.0306 27.347 19.9337 36.0704 19.9337C44.7937 19.9337 51.8906 27.0306 51.8906 35.7539C51.8906 44.4773 44.7937 51.5742 36.0704 51.5742Z" fill="#0087D3"/>
</svg>
