<svg width="54" height="54" viewBox="0 0 54 54" fill="none" xmlns="http://www.w3.org/2000/svg">
<g clip-path="url(#clip0)">
<path d="M49.9382 14.6515L49.9365 14.6095C49.9131 14.0908 49.8974 13.542 49.8879 12.9315C49.8438 9.95404 47.477 7.49119 44.4991 7.32474C38.2905 6.97826 33.4876 4.95376 29.3838 0.95379L29.3488 0.920419C28.0102 -0.306888 25.9911 -0.306888 24.6521 0.920419L24.6171 0.95379C20.5133 4.95376 15.7104 6.97826 9.50175 7.32516C6.52433 7.49119 4.15705 9.95404 4.11297 12.9319C4.10391 13.5383 4.08784 14.0871 4.06436 14.6095L4.06189 14.7071C3.94117 21.0381 3.79121 28.9173 6.4271 36.069C7.87647 40.0018 10.0715 43.4205 12.9509 46.2307C16.2303 49.431 20.5257 51.9717 25.7175 53.7819C25.8864 53.8409 26.0619 53.8887 26.2407 53.9245C26.4929 53.9748 26.7467 53.9999 27.0004 53.9999C27.2542 53.9999 27.5084 53.9748 27.7602 53.9245C27.939 53.8887 28.1157 53.8405 28.2854 53.7811C33.4711 51.9676 37.7619 49.4256 41.0385 46.2257C43.9166 43.4147 46.1117 39.9952 47.5623 36.0616C50.208 28.8885 50.0585 20.9944 49.9382 14.6515ZM44.5894 34.9653C41.8093 42.503 36.1342 47.6796 27.2398 50.7901C27.2081 50.8008 27.1743 50.8103 27.1393 50.8173C27.0474 50.8354 26.9539 50.8354 26.8608 50.8169C26.8262 50.8099 26.7924 50.8008 26.7611 50.7901C17.8572 47.6854 12.1784 42.5117 9.4004 34.9735C6.97092 28.3814 7.10852 21.1485 7.23006 14.7677L7.23088 14.7323C7.2556 14.1839 7.27208 13.6096 7.28115 12.9784C7.30092 11.6564 8.35396 10.5625 9.67849 10.4888C13.1919 10.2927 16.2785 9.61374 19.1146 8.41321C21.947 7.21433 24.4626 5.52436 26.8043 3.2469C26.9234 3.14638 27.0779 3.14597 27.1966 3.2469C29.5387 5.52436 32.0543 7.21433 34.8863 8.41321C37.7224 9.61374 40.809 10.2927 44.3228 10.4888C45.6474 10.5625 46.7004 11.6564 46.7198 12.9788C46.7292 13.6133 46.7457 14.1876 46.7704 14.7323C46.8915 21.1205 47.0259 28.3591 44.5894 34.9653Z" fill="#0087D3"/>
<path d="M26.9997 13.5433C19.579 13.5433 13.5421 19.5805 13.5421 27.0008C13.5421 34.4216 19.579 40.4588 26.9997 40.4588C34.42 40.4588 40.4572 34.4216 40.4572 27.0008C40.4572 19.5805 34.42 13.5433 26.9997 13.5433ZM26.9997 37.2898C21.3262 37.2898 16.7107 32.6743 16.7107 27.0008C16.7107 21.3274 21.3262 16.7119 26.9997 16.7119C32.6727 16.7119 37.2882 21.3274 37.2882 27.0008C37.2882 32.6743 32.6727 37.2898 26.9997 37.2898Z" fill="#0087D3"/>
<path d="M30.8674 22.8229L24.6167 29.0735L22.9202 27.377C22.3014 26.7582 21.2982 26.7582 20.6794 27.377C20.061 27.9958 20.061 28.999 20.6794 29.6174L23.4965 32.4345C23.8059 32.7439 24.2113 32.8984 24.6167 32.8984C25.0221 32.8984 25.4275 32.7439 25.7369 32.4345L33.1082 25.0633C33.7266 24.4445 33.7266 23.4413 33.1082 22.8229C32.4894 22.2037 31.4862 22.2037 30.8674 22.8229Z" fill="#0087D3"/>
</g>
<defs>
<clipPath id="clip0">
<rect width="54" height="54" fill="white"/>
</clipPath>
</defs>
</svg>
